<svg width="60" height="60" viewBox="0 0 60 60" fill="none" xmlns="http://www.w3.org/2000/svg">
<rect opacity="0.08" x="0.103516" y="0.592529" width="59.0222" height="59.0222" rx="8" fill="#F8B602"/>
<path d="M12.5 19.1377C12.5 16.7246 14.4619 14.7627 16.875 14.7627H43.125C45.5381 14.7627 47.5 16.7246 47.5 19.1377V41.0127C47.5 43.4258 45.5381 45.3877 43.125 45.3877H16.875C14.4619 45.3877 12.5 43.4258 12.5 41.0127V19.1377ZM15.7812 37.7314V39.9189C15.7812 40.5205 16.2734 41.0127 16.875 41.0127H19.0625C19.6641 41.0127 20.1562 40.5205 20.1562 39.9189V37.7314C20.1562 37.1299 19.6641 36.6377 19.0625 36.6377H16.875C16.2734 36.6377 15.7812 37.1299 15.7812 37.7314ZM40.9375 36.6377C40.3359 36.6377 39.8438 37.1299 39.8438 37.7314V39.9189C39.8438 40.5205 40.3359 41.0127 40.9375 41.0127H43.125C43.7266 41.0127 44.2188 40.5205 44.2188 39.9189V37.7314C44.2188 37.1299 43.7266 36.6377 43.125 36.6377H40.9375ZM15.7812 28.9814V31.1689C15.7812 31.7705 16.2734 32.2627 16.875 32.2627H19.0625C19.6641 32.2627 20.1562 31.7705 20.1562 31.1689V28.9814C20.1562 28.3799 19.6641 27.8877 19.0625 27.8877H16.875C16.2734 27.8877 15.7812 28.3799 15.7812 28.9814ZM40.9375 27.8877C40.3359 27.8877 39.8438 28.3799 39.8438 28.9814V31.1689C39.8438 31.7705 40.3359 32.2627 40.9375 32.2627H43.125C43.7266 32.2627 44.2188 31.7705 44.2188 31.1689V28.9814C44.2188 28.3799 43.7266 27.8877 43.125 27.8877H40.9375ZM15.7812 20.2314V22.4189C15.7812 23.0205 16.2734 23.5127 16.875 23.5127H19.0625C19.6641 23.5127 20.1562 23.0205 20.1562 22.4189V20.2314C20.1562 19.6299 19.6641 19.1377 19.0625 19.1377H16.875C16.2734 19.1377 15.7812 19.6299 15.7812 20.2314ZM40.9375 19.1377C40.3359 19.1377 39.8438 19.6299 39.8438 20.2314V22.4189C39.8438 23.0205 40.3359 23.5127 40.9375 23.5127H43.125C43.7266 23.5127 44.2188 23.0205 44.2188 22.4189V20.2314C44.2188 19.6299 43.7266 19.1377 43.125 19.1377H40.9375ZM23.4375 21.3252V25.7002C23.4375 26.9102 24.415 27.8877 25.625 27.8877H34.375C35.585 27.8877 36.5625 26.9102 36.5625 25.7002V21.3252C36.5625 20.1152 35.585 19.1377 34.375 19.1377H25.625C24.415 19.1377 23.4375 20.1152 23.4375 21.3252ZM25.625 32.2627C24.415 32.2627 23.4375 33.2402 23.4375 34.4502V38.8252C23.4375 40.0352 24.415 41.0127 25.625 41.0127H34.375C35.585 41.0127 36.5625 40.0352 36.5625 38.8252V34.4502C36.5625 33.2402 35.585 32.2627 34.375 32.2627H25.625Z" fill="#F8B602"/>
</svg>
