<svg width="59" height="59" viewBox="0 0 59 59" fill="none" xmlns="http://www.w3.org/2000/svg">
<rect opacity="0.08" width="59" height="59" rx="8" fill="#48B29A"/>
<g clip-path="url(#clip0_1_12076)">
<path d="M12.5 18.7002C12.5 17.251 13.6758 16.0752 15.125 16.0752H30.875C32.3242 16.0752 33.5 17.251 33.5 18.7002V41.4502C33.5 42.8994 32.3242 44.0752 30.875 44.0752H25.625V39.7002C25.625 38.251 24.4492 37.0752 23 37.0752C21.5508 37.0752 20.375 38.251 20.375 39.7002V44.0752H15.125C13.6758 44.0752 12.5 42.8994 12.5 41.4502V18.7002ZM16.875 28.3252C16.3937 28.3252 16 28.7189 16 29.2002V30.9502C16 31.4314 16.3937 31.8252 16.875 31.8252H18.625C19.1062 31.8252 19.5 31.4314 19.5 30.9502V29.2002C19.5 28.7189 19.1062 28.3252 18.625 28.3252H16.875ZM21.25 29.2002V30.9502C21.25 31.4314 21.6438 31.8252 22.125 31.8252H23.875C24.3562 31.8252 24.75 31.4314 24.75 30.9502V29.2002C24.75 28.7189 24.3562 28.3252 23.875 28.3252H22.125C21.6438 28.3252 21.25 28.7189 21.25 29.2002ZM27.375 28.3252C26.8938 28.3252 26.5 28.7189 26.5 29.2002V30.9502C26.5 31.4314 26.8938 31.8252 27.375 31.8252H29.125C29.6063 31.8252 30 31.4314 30 30.9502V29.2002C30 28.7189 29.6063 28.3252 29.125 28.3252H27.375ZM16 22.2002V23.9502C16 24.4314 16.3937 24.8252 16.875 24.8252H18.625C19.1062 24.8252 19.5 24.4314 19.5 23.9502V22.2002C19.5 21.7189 19.1062 21.3252 18.625 21.3252H16.875C16.3937 21.3252 16 21.7189 16 22.2002ZM22.125 21.3252C21.6438 21.3252 21.25 21.7189 21.25 22.2002V23.9502C21.25 24.4314 21.6438 24.8252 22.125 24.8252H23.875C24.3562 24.8252 24.75 24.4314 24.75 23.9502V22.2002C24.75 21.7189 24.3562 21.3252 23.875 21.3252H22.125ZM26.5 22.2002V23.9502C26.5 24.4314 26.8938 24.8252 27.375 24.8252H29.125C29.6063 24.8252 30 24.4314 30 23.9502V22.2002C30 21.7189 29.6063 21.3252 29.125 21.3252H27.375C26.8938 21.3252 26.5 21.7189 26.5 22.2002ZM47.5 26.5752V27.4502C47.5 29.8674 45.5422 31.8252 43.125 31.8252H42.25V30.9502C42.25 28.533 44.2078 26.5752 46.625 26.5752H47.5ZM47.5 33.5752C47.5 35.9924 45.5422 37.9502 43.125 37.9502H42.25V37.0752C42.25 34.658 44.2078 32.7002 46.625 32.7002H47.5V33.5752ZM47.5 39.7002C47.5 42.1174 45.5422 44.0752 43.125 44.0752H42.25V43.2002C42.25 40.783 44.2078 38.8252 46.625 38.8252H47.5V39.7002ZM40.5 43.2002V44.0752H39.625C37.2078 44.0752 35.25 42.1174 35.25 39.7002V38.8252H36.125C38.5422 38.8252 40.5 40.783 40.5 43.2002ZM40.5 37.9502H39.625C37.2078 37.9502 35.25 35.9924 35.25 33.5752V32.7002H36.125C38.5422 32.7002 40.5 34.658 40.5 37.0752V37.9502ZM40.5 30.9502V31.8252H39.625C37.2078 31.8252 35.25 29.8674 35.25 27.4502V26.5752H36.125C38.5422 26.5752 40.5 28.533 40.5 30.9502ZM41.375 17.8252C42.1023 17.8252 42.6875 18.4104 42.6875 19.1377V24.8252C42.6875 25.5525 42.1023 26.1377 41.375 26.1377C40.6477 26.1377 40.0625 25.5525 40.0625 24.8252V19.1377C40.0625 18.4104 40.6477 17.8252 41.375 17.8252ZM46.625 21.3252V23.0752C46.625 23.8025 46.0398 24.3877 45.3125 24.3877C44.5852 24.3877 44 23.8025 44 23.0752V21.3252C44 20.5979 44.5852 20.0127 45.3125 20.0127C46.0398 20.0127 46.625 20.5979 46.625 21.3252ZM37.4375 20.0127C38.1648 20.0127 38.75 20.5979 38.75 21.3252V23.0752C38.75 23.8025 38.1648 24.3877 37.4375 24.3877C36.7102 24.3877 36.125 23.8025 36.125 23.0752V21.3252C36.125 20.5979 36.7102 20.0127 37.4375 20.0127Z" fill="#61B587"/>
</g>
<defs>
<clipPath id="clip0_1_12076">
<rect width="35" height="28" fill="white" transform="translate(12.5 16.0752)"/>
</clipPath>
</defs>
</svg>
