<svg width="59" height="59" viewBox="0 0 59 59" fill="none" xmlns="http://www.w3.org/2000/svg">
<rect opacity="0.08" width="59" height="59" rx="8" fill="#3E97FF"/>
<g clip-path="url(#clip0_1_12087)">
<path d="M12.5 16.7002C12.5 15.251 13.6758 14.0752 15.125 14.0752H30.875C32.3242 14.0752 33.5 15.251 33.5 16.7002V39.4502C33.5 40.8994 32.3242 42.0752 30.875 42.0752H25.625V37.7002C25.625 36.251 24.4492 35.0752 23 35.0752C21.5508 35.0752 20.375 36.251 20.375 37.7002V42.0752H15.125C13.6758 42.0752 12.5 40.8994 12.5 39.4502V16.7002ZM16.875 26.3252C16.3937 26.3252 16 26.7189 16 27.2002V28.9502C16 29.4314 16.3937 29.8252 16.875 29.8252H18.625C19.1062 29.8252 19.5 29.4314 19.5 28.9502V27.2002C19.5 26.7189 19.1062 26.3252 18.625 26.3252H16.875ZM21.25 27.2002V28.9502C21.25 29.4314 21.6438 29.8252 22.125 29.8252H23.875C24.3562 29.8252 24.75 29.4314 24.75 28.9502V27.2002C24.75 26.7189 24.3562 26.3252 23.875 26.3252H22.125C21.6438 26.3252 21.25 26.7189 21.25 27.2002ZM27.375 26.3252C26.8938 26.3252 26.5 26.7189 26.5 27.2002V28.9502C26.5 29.4314 26.8938 29.8252 27.375 29.8252H29.125C29.6063 29.8252 30 29.4314 30 28.9502V27.2002C30 26.7189 29.6063 26.3252 29.125 26.3252H27.375ZM16 20.2002V21.9502C16 22.4314 16.3937 22.8252 16.875 22.8252H18.625C19.1062 22.8252 19.5 22.4314 19.5 21.9502V20.2002C19.5 19.7189 19.1062 19.3252 18.625 19.3252H16.875C16.3937 19.3252 16 19.7189 16 20.2002ZM22.125 19.3252C21.6438 19.3252 21.25 19.7189 21.25 20.2002V21.9502C21.25 22.4314 21.6438 22.8252 22.125 22.8252H23.875C24.3562 22.8252 24.75 22.4314 24.75 21.9502V20.2002C24.75 19.7189 24.3562 19.3252 23.875 19.3252H22.125ZM26.5 20.2002V21.9502C26.5 22.4314 26.8938 22.8252 27.375 22.8252H29.125C29.6063 22.8252 30 22.4314 30 21.9502V20.2002C30 19.7189 29.6063 19.3252 29.125 19.3252H27.375C26.8938 19.3252 26.5 19.7189 26.5 20.2002ZM47.5 24.5752V25.4502C47.5 27.8674 45.5422 29.8252 43.125 29.8252H42.25V28.9502C42.25 26.533 44.2078 24.5752 46.625 24.5752H47.5ZM47.5 31.5752C47.5 33.9924 45.5422 35.9502 43.125 35.9502H42.25V35.0752C42.25 32.658 44.2078 30.7002 46.625 30.7002H47.5V31.5752ZM47.5 37.7002C47.5 40.1174 45.5422 42.0752 43.125 42.0752H42.25V41.2002C42.25 38.783 44.2078 36.8252 46.625 36.8252H47.5V37.7002ZM40.5 41.2002V42.0752H39.625C37.2078 42.0752 35.25 40.1174 35.25 37.7002V36.8252H36.125C38.5422 36.8252 40.5 38.783 40.5 41.2002ZM40.5 35.9502H39.625C37.2078 35.9502 35.25 33.9924 35.25 31.5752V30.7002H36.125C38.5422 30.7002 40.5 32.658 40.5 35.0752V35.9502ZM40.5 28.9502V29.8252H39.625C37.2078 29.8252 35.25 27.8674 35.25 25.4502V24.5752H36.125C38.5422 24.5752 40.5 26.533 40.5 28.9502ZM41.375 15.8252C42.1023 15.8252 42.6875 16.4104 42.6875 17.1377V22.8252C42.6875 23.5525 42.1023 24.1377 41.375 24.1377C40.6477 24.1377 40.0625 23.5525 40.0625 22.8252V17.1377C40.0625 16.4104 40.6477 15.8252 41.375 15.8252ZM46.625 19.3252V21.0752C46.625 21.8025 46.0398 22.3877 45.3125 22.3877C44.5852 22.3877 44 21.8025 44 21.0752V19.3252C44 18.5979 44.5852 18.0127 45.3125 18.0127C46.0398 18.0127 46.625 18.5979 46.625 19.3252ZM37.4375 18.0127C38.1648 18.0127 38.75 18.5979 38.75 19.3252V21.0752C38.75 21.8025 38.1648 22.3877 37.4375 22.3877C36.7102 22.3877 36.125 21.8025 36.125 21.0752V19.3252C36.125 18.5979 36.7102 18.0127 37.4375 18.0127Z" fill="#3E97FF"/>
</g>
<defs>
<clipPath id="clip0_1_12087">
<rect width="35" height="28" fill="white" transform="translate(12.5 14.0752)"/>
</clipPath>
</defs>
</svg>
