<svg width="20" height="20" viewBox="0 0 20 20" fill="none" xmlns="http://www.w3.org/2000/svg">
<rect width="20" height="20" rx="5.47138" fill="#F4F4F4"/>
<path d="M8.98999 9.99863L6.79826 7.80767C6.52191 7.53141 6.52191 7.07417 6.79826 6.79792C7.07461 6.52167 7.53201 6.52167 7.80836 6.79792L10.0001 8.98888L12.1918 6.79792C12.4682 6.52167 12.9256 6.52167 13.2019 6.79792C13.4783 7.07417 13.4783 7.53141 13.2019 7.80767L11.0102 9.99863L13.2019 12.1896C13.4783 12.4658 13.4783 12.9231 13.2019 13.1993C13.059 13.3422 12.8779 13.4089 12.6969 13.4089C12.5158 13.4089 12.3348 13.3422 12.1918 13.1993L10.0001 11.0084L7.80836 13.1993C7.66542 13.3422 7.48436 13.4089 7.30331 13.4089C7.12225 13.4089 6.9412 13.3422 6.79826 13.1993C6.52191 12.9231 6.52191 12.4658 6.79826 12.1896L8.98999 9.99863Z" fill="#FF4B55"/>
</svg>
