<svg width="59" height="60" viewBox="0 0 59 60" fill="none" xmlns="http://www.w3.org/2000/svg">
<rect opacity="0.08" y="0.924805" width="59" height="59" rx="8" fill="#3E97FF"/>
<g clip-path="url(#clip0_1_14542)">
<path d="M46.4876 31.9696C46.4876 33.0634 45.5762 33.9202 44.5432 33.9202H42.5987L42.6413 43.6545C42.6413 43.8186 42.6291 43.9827 42.6109 44.1467V45.1311C42.6109 46.474 41.5232 47.5616 40.1803 47.5616H39.2081C39.1413 47.5616 39.0744 47.5616 39.0076 47.5556C38.9225 47.5616 38.8375 47.5616 38.7524 47.5616L36.7776 47.5556H35.3192C33.9763 47.5556 32.8887 46.4679 32.8887 45.125V43.6667V39.7778C32.8887 38.7023 32.0197 37.8333 30.9442 37.8333H27.0553C25.9798 37.8333 25.1109 38.7023 25.1109 39.7778V43.6667V45.125C25.1109 46.4679 24.0232 47.5556 22.6803 47.5556H21.222H19.2836C19.1925 47.5556 19.1013 47.5495 19.0102 47.5434C18.9373 47.5495 18.8644 47.5556 18.7915 47.5556H17.8192C16.4763 47.5556 15.3887 46.4679 15.3887 45.125V38.3195C15.3887 38.2648 15.3887 38.204 15.3947 38.1493V33.9141H13.4503C12.3566 33.9141 11.5059 33.0634 11.5059 31.9636C11.5059 31.4167 11.6882 30.9306 12.1135 30.5052L27.6873 16.9306C28.1126 16.5052 28.5987 16.4445 29.0241 16.4445C29.4494 16.4445 29.9355 16.566 30.3001 16.8698L45.8192 30.5113C46.3053 30.9366 46.5484 31.4228 46.4876 31.9696Z" fill="#3E97FF"/>
</g>
<defs>
<clipPath id="clip0_1_14542">
<rect width="35" height="31.1111" fill="white" transform="translate(11.5 16.4445)"/>
</clipPath>
</defs>
</svg>
