<svg width="17" height="17" viewBox="0 0 17 17" fill="none" xmlns="http://www.w3.org/2000/svg">
<path d="M14.6738 8.68506C14.6738 10.409 13.989 12.0623 12.77 13.2813C11.551 14.5002 9.89774 15.1851 8.17383 15.1851C6.44992 15.1851 4.79662 14.5002 3.57763 13.2813C2.35865 12.0623 1.67383 10.409 1.67383 8.68506C1.67383 6.96115 2.35865 5.30785 3.57763 4.08886C4.79662 2.86988 6.44992 2.18506 8.17383 2.18506C9.89774 2.18506 11.551 2.86988 12.77 4.08886C13.989 5.30785 14.6738 6.96115 14.6738 8.68506ZM0.173828 8.68506C0.173828 10.8068 1.01668 12.8416 2.51697 14.3419C4.01726 15.8422 6.0521 16.6851 8.17383 16.6851C10.2956 16.6851 12.3304 15.8422 13.8307 14.3419C15.331 12.8416 16.1738 10.8068 16.1738 8.68506C16.1738 6.56333 15.331 4.5285 13.8307 3.0282C12.3304 1.52791 10.2956 0.685059 8.17383 0.685059C6.0521 0.685059 4.01726 1.52791 2.51697 3.0282C1.01668 4.5285 0.173828 6.56333 0.173828 8.68506ZM7.70508 12.4663L10.9551 9.21631C11.2488 8.92256 11.2488 8.44756 10.9551 8.15693L7.70508 4.90381C7.41133 4.61006 6.93633 4.61006 6.6457 4.90381C6.35508 5.19756 6.35195 5.67256 6.6457 5.96318L9.36445 8.68193L6.6457 11.4007C6.35195 11.6944 6.35195 12.1694 6.6457 12.4601C6.93945 12.7507 7.41445 12.7538 7.70508 12.4601V12.4663Z" fill="white"/>
</svg>
