<svg width="59" height="60" viewBox="0 0 59 60" fill="none" xmlns="http://www.w3.org/2000/svg">
<rect opacity="0.08" y="0.924805" width="59" height="59" rx="8" fill="#FFBD66"/>
<g clip-path="url(#clip0_1_14530)">
<path d="M18.625 17C17.1758 17 16 18.1758 16 19.625V22.25H13.375C12.8937 22.25 12.5 22.6438 12.5 23.125C12.5 23.6062 12.8937 24 13.375 24H16H27.375C27.8562 24 28.25 24.3938 28.25 24.875C28.25 25.3562 27.8562 25.75 27.375 25.75H16H15.125C14.6437 25.75 14.25 26.1438 14.25 26.625C14.25 27.1062 14.6437 27.5 15.125 27.5H16H25.625C26.1062 27.5 26.5 27.8938 26.5 28.375C26.5 28.8562 26.1062 29.25 25.625 29.25H16H13.375C12.8937 29.25 12.5 29.6438 12.5 30.125C12.5 30.6062 12.8937 31 13.375 31H16H23.875C24.3562 31 24.75 31.3938 24.75 31.875C24.75 32.3562 24.3562 32.75 23.875 32.75H16V39.75C16 42.6484 18.3516 45 21.25 45C24.1484 45 26.5 42.6484 26.5 39.75H33.5C33.5 42.6484 35.8516 45 38.75 45C41.6484 45 44 42.6484 44 39.75H45.75C46.718 39.75 47.5 38.968 47.5 38C47.5 37.032 46.718 36.25 45.75 36.25V32.75V31V29.9773C45.75 29.0477 45.3836 28.1562 44.7273 27.5L40.5 23.2727C39.8438 22.6164 38.9523 22.25 38.0227 22.25H35.25V19.625C35.25 18.1758 34.0742 17 32.625 17H18.625ZM42.25 29.9773V31H35.25V25.75H38.0227L42.25 29.9773ZM21.25 37.125C21.9462 37.125 22.6139 37.4016 23.1062 37.8938C23.5984 38.3861 23.875 39.0538 23.875 39.75C23.875 40.4462 23.5984 41.1139 23.1062 41.6062C22.6139 42.0984 21.9462 42.375 21.25 42.375C20.5538 42.375 19.8861 42.0984 19.3938 41.6062C18.9016 41.1139 18.625 40.4462 18.625 39.75C18.625 39.0538 18.9016 38.3861 19.3938 37.8938C19.8861 37.4016 20.5538 37.125 21.25 37.125ZM36.125 39.75C36.125 39.0538 36.4016 38.3861 36.8938 37.8938C37.3861 37.4016 38.0538 37.125 38.75 37.125C39.4462 37.125 40.1139 37.4016 40.6062 37.8938C41.0984 38.3861 41.375 39.0538 41.375 39.75C41.375 40.4462 41.0984 41.1139 40.6062 41.6062C40.1139 42.0984 39.4462 42.375 38.75 42.375C38.0538 42.375 37.3861 42.0984 36.8938 41.6062C36.4016 41.1139 36.125 40.4462 36.125 39.75Z" fill="#FFBD66"/>
</g>
<defs>
<clipPath id="clip0_1_14530">
<rect width="35" height="28" fill="white" transform="translate(12.5 17)"/>
</clipPath>
</defs>
</svg>
