<svg width="22" height="22" viewBox="0 0 22 22" fill="none" xmlns="http://www.w3.org/2000/svg">
<g clip-path="url(#clip0_4_4785)">
<path d="M7.92532 20.8154L7.40132 21.1623C6.90851 21.4885 6.2446 21.3534 5.91838 20.8606L3.81755 17.6869C3.49133 17.1941 3.62638 16.5302 4.11919 16.204L4.6432 15.8572C5.13601 15.5309 5.79992 15.666 6.12613 16.1588L8.22696 19.3325C8.55314 19.8253 8.41813 20.4892 7.92532 20.8154Z" fill="#F2A74E"/>
<path d="M15.2065 7.10932C13.2987 4.22724 10.6594 2.05736 9.62766 2.74035C9.50283 2.82297 9.40753 2.94389 9.33929 3.09716C9.33426 3.10532 9.32937 3.11362 9.32485 3.12255C8.61836 4.52918 2.22427 11.2671 0.736948 12.705C0.566855 12.8691 0.449555 13.0803 0.40003 13.3114C0.265065 13.9432 0.134955 15.2631 0.968549 16.5224C1.80812 17.7907 3.11604 18.1808 3.76178 18.299C3.99126 18.3413 4.22812 18.3155 4.44309 18.2247C6.33165 17.4259 15.0192 14.1877 16.5838 14.0873C16.631 14.0843 16.6764 14.0782 16.7202 14.0699C16.8425 14.0541 16.9527 14.0153 17.0489 13.9515C17.1001 13.9174 17.1467 13.8769 17.1875 13.831C17.2752 13.7439 17.3425 13.6385 17.3849 13.5225C17.3729 13.5426 17.3593 13.5618 17.3442 13.5798C17.8245 12.4557 16.8758 9.63124 15.2065 7.10932Z" fill="#FFB636"/>
<path d="M14.6624 7.46891C16.3279 9.98499 17.2401 12.8007 16.4239 13.341C15.6077 13.8813 13.372 11.9417 11.7065 9.42562C10.041 6.90954 9.12879 4.09384 9.94502 3.55351C10.7613 3.01318 12.9969 4.95279 14.6624 7.46891Z" fill="#CC883E"/>
<path d="M2.86507 14.1302C2.75874 14.1303 2.65347 14.1091 2.55555 14.0676C2.45763 14.0262 2.36906 13.9654 2.29513 13.889C1.99001 13.5743 1.99779 13.0718 2.31254 12.7667L4.16595 10.9698C4.4807 10.6647 4.98317 10.6725 5.28825 10.9872C5.59337 11.3019 5.5856 11.8044 5.27085 12.1095L3.41743 13.9064C3.26956 14.0502 3.07134 14.1305 2.86507 14.1302Z" fill="#FFD469"/>
<path d="M16.9001 5.62515L20.0806 2.47502C20.2156 2.34126 20.439 2.36326 20.5453 2.52074L21.279 3.60695C21.3801 3.75657 21.3289 3.9608 21.1692 4.04501L17.255 6.10889C17.1907 6.14265 17.1164 6.15222 17.0457 6.13586C16.9749 6.1195 16.9124 6.0783 16.8694 6.01974C16.8264 5.96118 16.8059 5.88915 16.8115 5.81674C16.8172 5.74433 16.8486 5.67635 16.9001 5.62515ZM17.4261 8.33037C17.438 8.38864 17.4711 8.44044 17.5188 8.47586C17.5666 8.51127 17.6258 8.5278 17.685 8.52227L21.1907 8.19502C21.2245 8.19187 21.2572 8.18164 21.2867 8.165C21.3163 8.14836 21.342 8.12568 21.3622 8.09844C21.3824 8.07121 21.3966 8.04002 21.4039 8.00691C21.4112 7.97381 21.4115 7.93953 21.4047 7.90632L21.1955 6.88452C21.1652 6.73636 21.0077 6.65227 20.8677 6.70955L17.5711 8.05864C17.5191 8.07993 17.4761 8.11874 17.4496 8.16835C17.4231 8.21797 17.4148 8.27528 17.4261 8.33037ZM14.8086 4.61027C14.8582 4.64303 14.9182 4.65632 14.977 4.64758C15.0358 4.63884 15.0894 4.60869 15.1273 4.56292L17.3748 1.85258C17.3965 1.82648 17.4124 1.79612 17.4215 1.76346C17.4306 1.73081 17.4328 1.6966 17.4278 1.66307C17.4228 1.62953 17.4108 1.59743 17.3926 1.56884C17.3744 1.54025 17.3503 1.51582 17.322 1.49714L16.4516 0.922518C16.3254 0.839202 16.1545 0.891151 16.0961 1.03063L14.719 4.31559C14.6972 4.36744 14.6943 4.42528 14.7106 4.47909C14.727 4.53291 14.7616 4.57931 14.8086 4.61027Z" fill="#3E97FF"/>
</g>
<defs>
<clipPath id="clip0_4_4785">
<rect width="22" height="22" fill="white"/>
</clipPath>
</defs>
</svg>
