<svg width="35" height="35" viewBox="0 0 35 35" fill="none" xmlns="http://www.w3.org/2000/svg">
<rect opacity="0.08" width="35" height="35" rx="4.74576" fill="#6746F6"/>
<g filter="url(#filter0_bii_4_4685)">
<path d="M11.3449 8.30511C9.66805 8.30511 8.30469 9.66848 8.30469 11.3454V23.5064C8.30469 25.1833 9.66805 26.5466 11.3449 26.5466H23.506C25.1828 26.5466 26.5462 25.1833 26.5462 23.5064V11.3454C26.5462 9.66848 25.1828 8.30511 23.506 8.30511H11.3449ZM15.8436 14.0816L17.8387 18.642L18.5038 20.1621C18.6701 20.5469 18.499 20.9934 18.1143 21.1644C17.7295 21.3355 17.2829 21.1549 17.1119 20.7749L16.6416 19.7061H13.6489L13.1833 20.7702C13.0171 21.1549 12.5658 21.3307 12.181 21.1597C11.7962 20.9887 11.6205 20.5421 11.7915 20.1574L12.4565 18.6372L14.4517 14.0768C14.5705 13.8013 14.846 13.6208 15.15 13.6208C15.454 13.6208 15.7248 13.8013 15.8483 14.0768L15.8436 14.0816ZM15.1453 16.281L14.3139 18.1859H15.9813L15.1453 16.281ZM21.9858 14.3856V20.4661C21.9858 20.8842 21.6438 21.2262 21.2258 21.2262C20.8077 21.2262 20.4657 20.8842 20.4657 20.4661V14.3856C20.4657 13.9676 20.8077 13.6256 21.2258 13.6256C21.6438 13.6256 21.9858 13.9676 21.9858 14.3856Z" fill="#6746F6"/>
</g>
<g opacity="0.4" filter="url(#filter1_biiii_4_4685)">
<path d="M13.6996 6.47908C13.6996 5.84728 13.1913 5.33899 12.5595 5.33899C11.9277 5.33899 11.4194 5.84728 11.4194 6.47908V8.37924H13.6996V6.47908ZM18.64 8.37924V6.47908C18.64 5.84728 18.1317 5.33899 17.4999 5.33899C16.8681 5.33899 16.3598 5.84728 16.3598 6.47908V8.37924H18.64ZM23.5804 8.37924V6.47908C23.5804 5.84728 23.0721 5.33899 22.4403 5.33899C21.8085 5.33899 21.3002 5.84728 21.3002 6.47908V8.37924H23.5804ZM26.6206 13.6997H28.5208C29.1526 13.6997 29.6609 13.1914 29.6609 12.5596C29.6609 11.9278 29.1526 11.4195 28.5208 11.4195H26.6206V13.6997ZM26.6206 18.6401H28.5208C29.1526 18.6401 29.6609 18.1318 29.6609 17.5C29.6609 16.8682 29.1526 16.3599 28.5208 16.3599H26.6206V18.6401ZM26.6206 23.5805H28.5208C29.1526 23.5805 29.6609 23.0722 29.6609 22.4404C29.6609 21.8086 29.1526 21.3003 28.5208 21.3003H26.6206V23.5805ZM21.3002 26.6208V28.5209C21.3002 29.1527 21.8085 29.661 22.4403 29.661C23.0721 29.661 23.5804 29.1527 23.5804 28.5209V26.6208H21.3002ZM16.3598 26.6208V28.5209C16.3598 29.1527 16.8681 29.661 17.4999 29.661C18.1317 29.661 18.64 29.1527 18.64 28.5209V26.6208H16.3598ZM11.4194 26.6208V28.5209C11.4194 29.1527 11.9277 29.661 12.5595 29.661C13.1913 29.661 13.6996 29.1527 13.6996 28.5209V26.6208H11.4194ZM8.37912 21.3003H6.47896C5.84716 21.3003 5.33887 21.8086 5.33887 22.4404C5.33887 23.0722 5.84716 23.5805 6.47896 23.5805H8.37912V21.3003ZM8.37912 16.3599H6.47896C5.84716 16.3599 5.33887 16.8682 5.33887 17.5C5.33887 18.1318 5.84716 18.6401 6.47896 18.6401H8.37912V16.3599ZM8.37912 11.4195H6.47896C5.84716 11.4195 5.33887 11.9278 5.33887 12.5596C5.33887 13.1914 5.84716 13.6997 6.47896 13.6997H8.37912V11.4195Z" fill="#6746F6"/>
</g>
<defs>
<filter id="filter0_bii_4_4685" x="5.87248" y="5.87291" width="23.1056" height="23.1059" filterUnits="userSpaceOnUse" color-interpolation-filters="sRGB">
<feFlood flood-opacity="0" result="BackgroundImageFix"/>
<feGaussianBlur in="BackgroundImageFix" stdDeviation="1.2161"/>
<feComposite in2="SourceAlpha" operator="in" result="effect1_backgroundBlur_4_4685"/>
<feBlend mode="normal" in="SourceGraphic" in2="effect1_backgroundBlur_4_4685" result="shape"/>
<feColorMatrix in="SourceAlpha" type="matrix" values="0 0 0 0 0 0 0 0 0 0 0 0 0 0 0 0 0 0 127 0" result="hardAlpha"/>
<feOffset dx="-0.24322" dy="0.24322"/>
<feGaussianBlur stdDeviation="0.12161"/>
<feComposite in2="hardAlpha" operator="arithmetic" k2="-1" k3="1"/>
<feColorMatrix type="matrix" values="0 0 0 0 1 0 0 0 0 1 0 0 0 0 1 0 0 0 0.4 0"/>
<feBlend mode="normal" in2="shape" result="effect2_innerShadow_4_4685"/>
<feColorMatrix in="SourceAlpha" type="matrix" values="0 0 0 0 0 0 0 0 0 0 0 0 0 0 0 0 0 0 127 0" result="hardAlpha"/>
<feOffset dx="0.24322" dy="-0.24322"/>
<feGaussianBlur stdDeviation="0.12161"/>
<feComposite in2="hardAlpha" operator="arithmetic" k2="-1" k3="1"/>
<feColorMatrix type="matrix" values="0 0 0 0 0.339294 0 0 0 0 0.230588 0 0 0 0 0.810353 0 0 0 0.4 0"/>
<feBlend mode="normal" in2="effect2_innerShadow_4_4685" result="effect3_innerShadow_4_4685"/>
</filter>
<filter id="filter1_biiii_4_4685" x="-4.38995" y="-4.38982" width="43.7799" height="43.7796" filterUnits="userSpaceOnUse" color-interpolation-filters="sRGB">
<feFlood flood-opacity="0" result="BackgroundImageFix"/>
<feGaussianBlur in="BackgroundImageFix" stdDeviation="4.86441"/>
<feComposite in2="SourceAlpha" operator="in" result="effect1_backgroundBlur_4_4685"/>
<feBlend mode="normal" in="SourceGraphic" in2="effect1_backgroundBlur_4_4685" result="shape"/>
<feColorMatrix in="SourceAlpha" type="matrix" values="0 0 0 0 0 0 0 0 0 0 0 0 0 0 0 0 0 0 127 0" result="hardAlpha"/>
<feOffset dx="-0.648588" dy="0.648588"/>
<feGaussianBlur stdDeviation="0.324294"/>
<feComposite in2="hardAlpha" operator="arithmetic" k2="-1" k3="1"/>
<feColorMatrix type="matrix" values="0 0 0 0 0.323137 0 0 0 0 0.219608 0 0 0 0 0.771765 0 0 0 0.4 0"/>
<feBlend mode="normal" in2="shape" result="effect2_innerShadow_4_4685"/>
<feColorMatrix in="SourceAlpha" type="matrix" values="0 0 0 0 0 0 0 0 0 0 0 0 0 0 0 0 0 0 127 0" result="hardAlpha"/>
<feOffset dx="-0.324294" dy="0.324294"/>
<feGaussianBlur stdDeviation="0.162147"/>
<feComposite in2="hardAlpha" operator="arithmetic" k2="-1" k3="1"/>
<feColorMatrix type="matrix" values="0 0 0 0 1 0 0 0 0 1 0 0 0 0 1 0 0 0 0.4 0"/>
<feBlend mode="normal" in2="effect2_innerShadow_4_4685" result="effect3_innerShadow_4_4685"/>
<feColorMatrix in="SourceAlpha" type="matrix" values="0 0 0 0 0 0 0 0 0 0 0 0 0 0 0 0 0 0 127 0" result="hardAlpha"/>
<feOffset dx="0.648588" dy="-0.648588"/>
<feGaussianBlur stdDeviation="0.324294"/>
<feComposite in2="hardAlpha" operator="arithmetic" k2="-1" k3="1"/>
<feColorMatrix type="matrix" values="0 0 0 0 1 0 0 0 0 1 0 0 0 0 1 0 0 0 0.4 0"/>
<feBlend mode="normal" in2="effect3_innerShadow_4_4685" result="effect4_innerShadow_4_4685"/>
<feColorMatrix in="SourceAlpha" type="matrix" values="0 0 0 0 0 0 0 0 0 0 0 0 0 0 0 0 0 0 127 0" result="hardAlpha"/>
<feOffset dx="0.324294" dy="-0.324294"/>
<feGaussianBlur stdDeviation="0.162147"/>
<feComposite in2="hardAlpha" operator="arithmetic" k2="-1" k3="1"/>
<feColorMatrix type="matrix" values="0 0 0 0 0.323137 0 0 0 0 0.219608 0 0 0 0 0.771765 0 0 0 0.4 0"/>
<feBlend mode="normal" in2="effect4_innerShadow_4_4685" result="effect5_innerShadow_4_4685"/>
</filter>
</defs>
</svg>
