<svg width="35" height="35" viewBox="0 0 35 35" fill="none" xmlns="http://www.w3.org/2000/svg">
<rect opacity="0.04" width="35" height="35" rx="4.74576" fill="#3E97FF"/>
<g opacity="0.4" filter="url(#filter0_biiii_4_4759)">
<path d="M9.06445 11.2192C9.06445 9.99518 10.0596 9 11.2837 9H16.8317V13.4384C16.8317 14.0522 17.3276 14.548 17.9413 14.548H22.3797V19.3852L19.096 22.669C18.8117 22.9533 18.6105 23.3105 18.5135 23.6988L17.9933 25.7828C17.9136 26.1088 17.9309 26.4451 18.0419 26.7503H11.2837C10.0596 26.7503 9.06445 25.7551 9.06445 24.531V11.2192Z" fill="#3E97FF"/>
</g>
<g filter="url(#filter1_bii_4_4759)">
<path d="M22.4064 14.548H17.968C17.3543 14.548 16.8584 14.0522 16.8584 13.4384V9L22.4064 14.548ZM28.1591 17.173L28.6584 17.6723C29.1993 18.2132 29.1993 19.0905 28.6584 19.6349L27.6389 20.6578L25.177 18.1959L26.1964 17.1764C26.7374 16.6355 27.6147 16.6355 28.1591 17.1764V17.173ZM19.9064 23.463L24.3899 18.9795L26.8518 21.4415L22.3683 25.925C22.2261 26.0672 22.0493 26.1677 21.8516 26.2163L19.7642 26.7364C19.5735 26.7849 19.3758 26.7294 19.2371 26.5907C19.0984 26.452 19.0429 26.2544 19.0915 26.0637L19.6116 23.9762C19.6602 23.7821 19.7607 23.6017 19.9029 23.4596L19.9064 23.463Z" fill="#3E97FF"/>
</g>
<defs>
<filter id="filter0_biiii_4_4759" x="6.99342" y="6.92896" width="17.4575" height="21.8923" filterUnits="userSpaceOnUse" color-interpolation-filters="sRGB">
<feFlood flood-opacity="0" result="BackgroundImageFix"/>
<feGaussianBlur in="BackgroundImageFix" stdDeviation="1.03552"/>
<feComposite in2="SourceAlpha" operator="in" result="effect1_backgroundBlur_4_4759"/>
<feBlend mode="normal" in="SourceGraphic" in2="effect1_backgroundBlur_4_4759" result="shape"/>
<feColorMatrix in="SourceAlpha" type="matrix" values="0 0 0 0 0 0 0 0 0 0 0 0 0 0 0 0 0 0 127 0" result="hardAlpha"/>
<feOffset dx="-0.414207" dy="0.414207"/>
<feGaussianBlur stdDeviation="0.207104"/>
<feComposite in2="hardAlpha" operator="arithmetic" k2="-1" k3="1"/>
<feColorMatrix type="matrix" values="0 0 0 0 0.195104 0 0 0 0 0.473356 0 0 0 0 0.8 0 0 0 0.4 0"/>
<feBlend mode="normal" in2="shape" result="effect2_innerShadow_4_4759"/>
<feColorMatrix in="SourceAlpha" type="matrix" values="0 0 0 0 0 0 0 0 0 0 0 0 0 0 0 0 0 0 127 0" result="hardAlpha"/>
<feOffset dx="-0.207104" dy="0.207104"/>
<feGaussianBlur stdDeviation="0.103552"/>
<feComposite in2="hardAlpha" operator="arithmetic" k2="-1" k3="1"/>
<feColorMatrix type="matrix" values="0 0 0 0 1 0 0 0 0 1 0 0 0 0 1 0 0 0 0.4 0"/>
<feBlend mode="normal" in2="effect2_innerShadow_4_4759" result="effect3_innerShadow_4_4759"/>
<feColorMatrix in="SourceAlpha" type="matrix" values="0 0 0 0 0 0 0 0 0 0 0 0 0 0 0 0 0 0 127 0" result="hardAlpha"/>
<feOffset dx="0.414207" dy="-0.414207"/>
<feGaussianBlur stdDeviation="0.207104"/>
<feComposite in2="hardAlpha" operator="arithmetic" k2="-1" k3="1"/>
<feColorMatrix type="matrix" values="0 0 0 0 1 0 0 0 0 1 0 0 0 0 1 0 0 0 0.4 0"/>
<feBlend mode="normal" in2="effect3_innerShadow_4_4759" result="effect4_innerShadow_4_4759"/>
<feColorMatrix in="SourceAlpha" type="matrix" values="0 0 0 0 0 0 0 0 0 0 0 0 0 0 0 0 0 0 127 0" result="hardAlpha"/>
<feOffset dx="0.207104" dy="-0.207104"/>
<feGaussianBlur stdDeviation="0.103552"/>
<feComposite in2="hardAlpha" operator="arithmetic" k2="-1" k3="1"/>
<feColorMatrix type="matrix" values="0 0 0 0 0.195104 0 0 0 0 0.473356 0 0 0 0 0.8 0 0 0 0.4 0"/>
<feBlend mode="normal" in2="effect4_innerShadow_4_4759" result="effect5_innerShadow_4_4759"/>
</filter>
<filter id="filter1_bii_4_4759" x="10.8665" y="3.00813" width="24.1898" height="29.7374" filterUnits="userSpaceOnUse" color-interpolation-filters="sRGB">
<feFlood flood-opacity="0" result="BackgroundImageFix"/>
<feGaussianBlur in="BackgroundImageFix" stdDeviation="2.99593"/>
<feComposite in2="SourceAlpha" operator="in" result="effect1_backgroundBlur_4_4759"/>
<feBlend mode="normal" in="SourceGraphic" in2="effect1_backgroundBlur_4_4759" result="shape"/>
<feColorMatrix in="SourceAlpha" type="matrix" values="0 0 0 0 0 0 0 0 0 0 0 0 0 0 0 0 0 0 127 0" result="hardAlpha"/>
<feOffset dx="-0.199729" dy="0.199729"/>
<feGaussianBlur stdDeviation="0.0998644"/>
<feComposite in2="hardAlpha" operator="arithmetic" k2="-1" k3="1"/>
<feColorMatrix type="matrix" values="0 0 0 0 1 0 0 0 0 1 0 0 0 0 1 0 0 0 0.4 0"/>
<feBlend mode="normal" in2="shape" result="effect2_innerShadow_4_4759"/>
<feColorMatrix in="SourceAlpha" type="matrix" values="0 0 0 0 0 0 0 0 0 0 0 0 0 0 0 0 0 0 127 0" result="hardAlpha"/>
<feOffset dx="0.199729" dy="-0.199729"/>
<feGaussianBlur stdDeviation="0.0998644"/>
<feComposite in2="hardAlpha" operator="arithmetic" k2="-1" k3="1"/>
<feColorMatrix type="matrix" values="0 0 0 0 0.204859 0 0 0 0 0.497024 0 0 0 0 0.84 0 0 0 0.4 0"/>
<feBlend mode="normal" in2="effect2_innerShadow_4_4759" result="effect3_innerShadow_4_4759"/>
</filter>
</defs>
</svg>
