<svg width="20" height="21" viewBox="0 0 20 21" fill="none" xmlns="http://www.w3.org/2000/svg">
<path d="M5.1665 13.5915L6.9973 11.2626C7.51644 10.6022 8.50952 10.5806 9.05689 11.2178L10.6665 13.0915M9.27653 11.4735C9.96797 10.5939 10.9314 9.34786 10.9941 9.26678L11.0007 9.25827C11.5208 8.60214 12.5107 8.58203 13.0569 9.21781L14.6665 11.0915M6.49984 6.09149H13.4998C14.2362 6.09149 14.8332 6.68845 14.8332 7.42482V14.4248C14.8332 15.1612 14.2362 15.7582 13.4998 15.7582H6.49984C5.76346 15.7582 5.1665 15.1612 5.1665 14.4248V7.42483C5.1665 6.68845 5.76346 6.09149 6.49984 6.09149Z" stroke="#667085" stroke-width="1.5" stroke-linecap="round" stroke-linejoin="round"/>
</svg>
