<svg width="20" height="21" viewBox="0 0 20 21" fill="none" xmlns="http://www.w3.org/2000/svg">
<path d="M8.49984 6.92483H14.1665M8.49984 10.9248H14.1665M8.49984 14.9248H14.1665M6.33317 6.92483C6.33317 7.10892 6.18393 7.25816 5.99984 7.25816C5.81574 7.25816 5.6665 7.10892 5.6665 6.92483C5.6665 6.74073 5.81574 6.59149 5.99984 6.59149C6.18393 6.59149 6.33317 6.74073 6.33317 6.92483ZM6.33317 10.9248C6.33317 11.1089 6.18393 11.2582 5.99984 11.2582C5.81574 11.2582 5.6665 11.1089 5.6665 10.9248C5.6665 10.7407 5.81574 10.5915 5.99984 10.5915C6.18393 10.5915 6.33317 10.7407 6.33317 10.9248ZM6.33317 14.9248C6.33317 15.1089 6.18393 15.2582 5.99984 15.2582C5.81574 15.2582 5.6665 15.1089 5.6665 14.9248C5.6665 14.7407 5.81574 14.5915 5.99984 14.5915C6.18393 14.5915 6.33317 14.7407 6.33317 14.9248Z" stroke="#667085" stroke-width="1.5" stroke-linecap="round" stroke-linejoin="round"/>
</svg>
