<svg width="20" height="21" viewBox="0 0 20 21" fill="none" xmlns="http://www.w3.org/2000/svg">
<path d="M5.1665 7.09149L6.1665 6.09149V9.75816M6.1665 9.75816H5.1665M6.1665 9.75816H6.83317M10.8332 12.4248H9.77066C9.2835 12.4248 9.01198 11.8821 9.27036 11.4964C9.30219 11.4489 9.34725 11.4122 9.39487 11.3806L10.5948 10.5821C10.6424 10.5504 10.6873 10.5136 10.7198 10.4666C11.0167 10.0367 10.714 9.42482 10.1682 9.42482H9.1665M13.1665 12.7582H14.1308C14.9537 12.7582 15.0997 14.0165 14.3399 14.2286C14.3031 14.2389 14.2645 14.243 14.2263 14.2443L13.8332 14.2582L14.2263 14.272C14.2645 14.2734 14.3031 14.2775 14.3399 14.2877C15.0997 14.4998 14.9537 15.7582 14.1308 15.7582H13.1665" stroke="#667085" stroke-width="1.5" stroke-linecap="round" stroke-linejoin="round"/>
</svg>
