<svg width="16" height="16" viewBox="0 0 16 16" fill="none" xmlns="http://www.w3.org/2000/svg">
<path d="M5.3335 3.83307C5.06016 3.83307 4.8335 3.6064 4.8335 3.33307V1.33307C4.8335 1.05974 5.06016 0.833069 5.3335 0.833069C5.60683 0.833069 5.8335 1.05974 5.8335 1.33307V3.33307C5.8335 3.6064 5.60683 3.83307 5.3335 3.83307Z" fill="#615E83"/>
<path d="M10.6665 3.83307C10.3932 3.83307 10.1665 3.6064 10.1665 3.33307V1.33307C10.1665 1.05974 10.3932 0.833069 10.6665 0.833069C10.9398 0.833069 11.1665 1.05974 11.1665 1.33307V3.33307C11.1665 3.6064 10.9398 3.83307 10.6665 3.83307Z" fill="#615E83"/>
<path d="M5.66667 9.66679C5.49333 9.66679 5.32 9.59345 5.19333 9.47345C5.07333 9.34679 5 9.18012 5 9.00012C5 8.91346 5.02 8.82679 5.05333 8.74679C5.08667 8.66679 5.13333 8.59346 5.19333 8.5268C5.44 8.28013 5.88667 8.28013 6.14 8.5268C6.26 8.65346 6.33333 8.82679 6.33333 9.00012C6.33333 9.04012 6.32667 9.0868 6.32 9.13347C6.31334 9.17347 6.3 9.21346 6.28 9.25346C6.26667 9.29346 6.24667 9.33346 6.22 9.37346C6.19333 9.40679 6.16667 9.44012 6.14 9.47345C6.01333 9.59345 5.84 9.66679 5.66667 9.66679Z" fill="#615E83"/>
<path d="M8.00016 9.6663C7.9135 9.6663 7.82683 9.64631 7.74683 9.61298C7.66016 9.57965 7.5935 9.53297 7.52683 9.47297C7.40683 9.3463 7.3335 9.17964 7.3335 8.99964C7.3335 8.91297 7.3535 8.8263 7.38683 8.7463C7.42016 8.6663 7.46683 8.59298 7.52683 8.52631C7.5935 8.46631 7.66016 8.41963 7.74683 8.3863C7.9935 8.2863 8.28683 8.33964 8.4735 8.52631C8.5935 8.65298 8.66683 8.8263 8.66683 8.99964C8.66683 9.03964 8.66017 9.08631 8.6535 9.13298C8.64683 9.17298 8.63349 9.21297 8.61349 9.25297C8.60016 9.29297 8.58016 9.33297 8.5535 9.37297C8.5335 9.4063 8.50016 9.43963 8.4735 9.47297C8.34683 9.59297 8.1735 9.6663 8.00016 9.6663Z" fill="#615E83"/>
<path d="M5.66667 11.9998C5.58 11.9998 5.49334 11.9798 5.41334 11.9465C5.32667 11.9132 5.25333 11.8665 5.19333 11.8065C5.13333 11.7465 5.08667 11.6732 5.05333 11.5865C5.02 11.5065 5 11.4198 5 11.3332C5 11.2465 5.02 11.1598 5.05333 11.0798C5.08667 10.9932 5.13333 10.9198 5.19333 10.8598C5.25333 10.7998 5.32667 10.7532 5.41334 10.7198C5.57334 10.6532 5.76 10.6465 5.92 10.7198C6.00666 10.7532 6.08 10.7998 6.14 10.8598C6.2 10.9198 6.24667 10.9932 6.28 11.0798C6.31333 11.1598 6.33333 11.2465 6.33333 11.3332C6.33333 11.4198 6.31333 11.5065 6.28 11.5865C6.24667 11.6732 6.2 11.7465 6.14 11.8065C6.08 11.8665 6.00666 11.9132 5.92 11.9465C5.84 11.9798 5.75333 11.9998 5.66667 11.9998Z" fill="#615E83"/>
<path d="M13.6668 6.55963H2.3335C2.06016 6.55963 1.8335 6.33296 1.8335 6.05963C1.8335 5.7863 2.06016 5.55963 2.3335 5.55963H13.6668C13.9402 5.55963 14.1668 5.7863 14.1668 6.05963C14.1668 6.33296 13.9402 6.55963 13.6668 6.55963Z" fill="#615E83"/>
<path d="M12.0002 15.8331C11.2202 15.8331 10.4802 15.5531 9.9135 15.0398C9.6735 14.8398 9.46016 14.5864 9.28683 14.2931C8.9935 13.8131 8.8335 13.2464 8.8335 12.6664C8.8335 10.9198 10.2535 9.49976 12.0002 9.49976C12.9068 9.49976 13.7735 9.89308 14.3735 10.5731C14.8868 11.1597 15.1668 11.8998 15.1668 12.6664C15.1668 13.2464 15.0068 13.8131 14.7068 14.2998C14.1468 15.2464 13.1068 15.8331 12.0002 15.8331ZM12.0002 10.4998C10.8068 10.4998 9.8335 11.4731 9.8335 12.6664C9.8335 13.0598 9.94016 13.4464 10.1468 13.7798C10.2602 13.9798 10.4068 14.1464 10.5668 14.2864C10.9668 14.6464 11.4668 14.8331 12.0002 14.8331C12.7668 14.8331 13.4602 14.4398 13.8535 13.7864C14.0602 13.4464 14.1668 13.0664 14.1668 12.6664C14.1668 12.1464 13.9735 11.6398 13.6268 11.2331C13.2135 10.7664 12.6202 10.4998 12.0002 10.4998Z" fill="#615E83"/>
<path d="M11.6202 13.8266C11.4936 13.8266 11.3669 13.7799 11.2669 13.6799L10.6069 13.0199C10.4136 12.8266 10.4136 12.5066 10.6069 12.3132C10.8002 12.1199 11.1202 12.1199 11.3136 12.3132L11.6336 12.6333L12.7002 11.6466C12.9002 11.4599 13.2202 11.4733 13.4069 11.6733C13.5936 11.8733 13.5802 12.1932 13.3802 12.3799L11.9602 13.6932C11.8602 13.7799 11.7402 13.8266 11.6202 13.8266Z" fill="#615E83"/>
<path d="M10.2467 15.1664H5.33333C2.9 15.1664 1.5 13.7664 1.5 11.3331V5.6664C1.5 3.23307 2.9 1.83307 5.33333 1.83307H10.6667C13.1 1.83307 14.5 3.23307 14.5 5.6664V10.9064C14.5 11.1131 14.3733 11.2997 14.1733 11.3731C13.98 11.4464 13.76 11.3931 13.62 11.2331C13.2067 10.7664 12.6133 10.4997 11.9933 10.4997C10.8 10.4997 9.82667 11.4731 9.82667 12.6664C9.82667 13.0597 9.93333 13.4464 10.14 13.7797C10.2533 13.9797 10.4 14.1464 10.56 14.2864C10.72 14.4197 10.78 14.6397 10.7067 14.8397C10.6467 15.0331 10.46 15.1664 10.2467 15.1664ZM5.33333 2.83307C3.42667 2.83307 2.5 3.75974 2.5 5.6664V11.3331C2.5 13.2397 3.42667 14.1664 5.33333 14.1664H9.21333C8.96667 13.7131 8.83333 13.1997 8.83333 12.6664C8.83333 10.9197 10.2533 9.49974 12 9.49974C12.5267 9.49974 13.0467 9.63307 13.5 9.87974V5.6664C13.5 3.75974 12.5733 2.83307 10.6667 2.83307H5.33333Z" fill="#615E83"/>
</svg>
