<svg width="16" height="16" viewBox="0 0 16 16" fill="none" xmlns="http://www.w3.org/2000/svg">
<path d="M7.99995 10.8864C6.40661 10.8864 5.11328 9.59304 5.11328 7.9997C5.11328 6.40637 6.40661 5.11304 7.99995 5.11304C9.59328 5.11304 10.8866 6.40637 10.8866 7.9997C10.8866 9.59304 9.59328 10.8864 7.99995 10.8864ZM7.99995 6.11304C6.95995 6.11304 6.11328 6.9597 6.11328 7.9997C6.11328 9.0397 6.95995 9.88637 7.99995 9.88637C9.03995 9.88637 9.88661 9.0397 9.88661 7.9997C9.88661 6.9597 9.03995 6.11304 7.99995 6.11304Z" fill="#615E83"/>
<path d="M7.99973 14.0132C5.49306 14.0132 3.12639 12.5466 1.49973 9.99991C0.79306 8.89991 0.79306 7.10657 1.49973 5.99991C3.13306 3.45324 5.49973 1.98657 7.99973 1.98657C10.4997 1.98657 12.8664 3.45324 14.4931 5.99991C15.1997 7.09991 15.1997 8.89324 14.4931 9.99991C12.8664 12.5466 10.4997 14.0132 7.99973 14.0132ZM7.99973 2.98657C5.84639 2.98657 3.78639 4.27991 2.34639 6.53991C1.84639 7.31991 1.84639 8.67991 2.34639 9.45991C3.78639 11.7199 5.84639 13.0132 7.99973 13.0132C10.1531 13.0132 12.2131 11.7199 13.6531 9.45991C14.1531 8.67991 14.1531 7.31991 13.6531 6.53991C12.2131 4.27991 10.1531 2.98657 7.99973 2.98657Z" fill="#615E83"/>
</svg>
